<svg width="852" height="536" viewBox="0 0 852 536" fill="none" xmlns="http://www.w3.org/2000/svg">
<path d="M422.345 535.57C564.718 535.57 680.134 415.687 680.134 267.804C680.134 119.921 564.718 0.0380859 422.345 0.0380859C279.971 0.0380859 164.555 119.921 164.555 267.804C164.555 415.687 279.971 535.57 422.345 535.57Z" fill="url(#paint0_radial_201_1429)"/>
<path style="mix-blend-mode:multiply" opacity="0.1" d="M271.83 83.7903C269.638 84.5227 267.485 85.3541 265.35 86.2845C258.528 89.2735 255.803 99.6263 262.282 104.773C265.065 106.99 268.819 107.188 272.211 108.138C275.603 109.088 279.224 111.543 279.262 115.185C279.281 118.253 276.785 120.609 274.574 122.648C266.456 130.19 259.481 140.087 258.852 151.39C258.223 162.673 265.998 174.887 276.88 175.48C280.577 175.678 284.637 174.293 286.485 170.967C289.115 166.216 286.409 159.427 289.687 155.131C292.279 151.746 297.291 151.786 301.255 153.152C305.219 154.518 308.916 156.913 313.07 157.249C319.359 157.744 325.076 153.409 329.307 148.52C330.87 146.718 332.394 144.64 332.585 142.225C333.081 136.326 326.239 133.179 320.808 131.417C315.376 129.655 308.878 125.043 310.879 119.52C311.984 116.432 315.281 115.007 318.006 113.324C320.731 111.642 323.399 108.435 322.161 105.406C321.532 103.862 320.026 102.892 318.502 102.299C310.955 99.3491 302.169 103.387 294.546 100.636C293.803 100.378 293.06 100.022 292.583 99.4085C291.688 98.2802 291.859 96.5779 292.488 95.2714C294.222 91.6093 298.548 90.5206 300.816 87.2346C301.217 86.6606 301.579 85.9876 301.483 85.275C301.407 84.7603 301.102 84.3446 300.759 83.9685C297.329 80.0689 291.516 79.8907 286.466 80.5044C281.492 81.118 276.575 82.2265 271.811 83.8101L271.83 83.7903Z" fill="url(#paint1_linear_201_1429)"/>
<path style="mix-blend-mode:multiply" opacity="0.1" d="M317.93 174.827C325.076 173.699 331.137 168.77 336.015 163.208C340.875 157.665 344.915 151.331 350.08 146.085C361.438 134.565 378.247 129.16 393.893 131.952C399.286 132.922 405.156 135.396 407.138 140.701C410.949 150.974 397.437 160.714 398.962 171.621C399.61 176.213 402.926 180.014 406.814 182.31C410.701 184.606 415.123 185.655 419.468 186.764C441.46 192.425 463.109 200.719 481.652 214.239C487.636 218.594 493.411 223.681 496.784 230.411C500.157 237.142 500.672 245.871 496.403 252.047C493.03 256.937 487.331 259.49 481.767 261.133C473.553 263.568 464.824 264.578 456.42 262.994C448.016 261.41 439.935 257.095 434.561 250.187C429.301 243.437 426.957 234.806 423.032 227.165C419.392 220.059 414.094 213.546 406.985 210.32C399.896 207.093 390.824 207.786 385.298 213.408C380.552 218.238 379.066 225.681 374.588 230.788C370.566 235.38 364.087 237.577 358.293 236.112C352.5 234.648 347.678 229.382 346.783 223.246C345.963 217.584 348.326 211.883 351.661 207.331C354.996 202.778 359.265 199.076 363.077 194.959C367.67 189.99 371.786 182.607 368.565 176.589C365.516 170.868 357.722 170.255 351.661 171.977C344.896 173.877 338.645 177.757 333.843 183.062C329.345 188.05 326.144 194.147 321.76 199.234C317.377 204.322 311.126 208.479 304.609 207.608C297.271 206.618 291.897 199.373 290.373 191.871C288.848 184.349 290.373 176.569 291.859 169.067C292.278 166.989 293.574 162.416 296.566 163.544C298.091 164.118 299.635 168.196 301.007 169.463C305.542 173.64 311.908 175.778 317.93 174.827V174.827Z" fill="url(#paint2_linear_201_1429)"/>
<path style="mix-blend-mode:multiply" opacity="0.1" d="M504.997 267.685C497.489 280.512 484.987 290.509 470.713 292.825C456.439 295.141 440.755 288.925 433.036 276.237C431.054 272.97 429.587 269.348 427.129 266.438C420.439 258.52 408.49 258.322 398.752 261.292C381.467 266.557 366.354 280.691 361.704 298.783C357.054 316.856 364.353 338.195 380.114 347.281C393.492 355.001 410.072 353.318 424.861 349.161C439.649 345.004 454.019 338.591 469.284 337.462C478.507 336.77 489.18 338.888 493.925 347.142C496.993 352.467 496.822 359.059 496.783 365.254C496.688 376.458 497.298 387.821 500.633 398.47C503.968 409.12 510.314 419.097 519.595 424.778C529.086 430.578 540.825 431.389 551.593 429.014C562.36 426.638 572.289 421.294 581.684 415.355C601.847 402.627 621.19 385.485 628.165 362.067C629.842 356.426 630.471 349.498 626.45 345.321C624.106 342.906 620.714 341.995 617.455 341.481C603.905 339.343 590.108 342.154 576.405 342.391C571.069 342.49 565.6 342.154 560.683 339.976C555.766 337.799 551.478 333.484 550.449 328.04C549.134 321.092 553.441 314.085 559.082 310.086C564.723 306.087 571.527 304.405 578.044 302.346C599.465 295.576 620.161 283.363 632.587 264.003C635.807 258.975 638.495 253.275 638.533 247.237C638.552 241.2 635.293 234.826 629.766 232.945C623.877 230.946 617.627 234.351 612.462 237.934C598.112 247.91 584.6 260.5 567.734 264.281C563.618 265.211 558.892 265.429 555.614 262.697C552.107 259.787 551.44 254.601 550.888 249.969C550.011 242.803 548.658 235.538 545.113 229.323C539.339 219.227 521.158 211.171 515.517 225.641C513.573 230.649 514.602 237.518 513.745 242.823C512.334 251.552 509.476 260.104 505.054 267.685H504.997Z" fill="url(#paint3_linear_201_1429)"/>
<path style="mix-blend-mode:multiply" opacity="0.1" d="M421.2 147.392C423.964 145.412 428.938 145.135 429.586 148.559C429.852 150.004 429.109 151.41 428.518 152.756C426.098 158.219 426.193 165.563 430.653 169.403C433.111 171.522 436.408 172.214 439.534 172.907C455.77 176.49 471.588 181.993 486.644 189.278C490.36 191.079 494.667 194.246 493.828 198.403C493.218 201.471 489.845 203.213 486.853 203.015C483.842 202.817 481.136 201.214 478.506 199.709C465.68 192.385 451.959 186.803 437.761 183.141C430.005 181.142 419.066 178.826 415.007 170.809C411.138 163.188 414.625 152.083 421.2 147.392V147.392Z" fill="url(#paint4_linear_201_1429)"/>
<path style="mix-blend-mode:multiply" opacity="0.1" d="M562.665 227.422C563.732 231.678 563.98 236.409 566.667 239.814C570.879 245.178 579.245 244.584 584.905 240.942C590.565 237.3 594.51 231.46 599.332 226.69C605.106 220.989 612.234 216.792 619.914 214.595C627.079 212.536 635.789 212.695 640.686 218.495C643.583 221.939 645.146 227.244 649.415 228.313C652.731 229.144 656.218 226.63 657.438 223.325C658.657 220.019 658.048 216.258 656.714 213.011C654.293 207.152 649.548 202.401 643.831 200.105C635.655 196.819 626.279 198.64 618.408 202.619C610.518 206.598 603.753 212.536 596.721 217.96C592.585 221.147 587.707 224.314 582.637 223.305C575.777 221.939 572.06 213.665 565.448 211.309C561.827 210.022 550.811 211.566 553.899 217.604C554.661 219.069 557.653 219.385 558.892 220.514C560.817 222.236 562.036 224.908 562.665 227.422V227.422Z" fill="url(#paint5_linear_201_1429)"/>
<path style="mix-blend-mode:multiply" opacity="0.1" d="M592.472 312.382C589.423 315.074 587.899 320.221 590.452 323.428C592.396 325.862 595.769 326.258 598.799 326.496C607.585 327.149 616.37 327.802 625.156 328.455C630.492 328.851 636.781 329.9 639.125 334.889C640.211 337.205 640.135 339.917 640.783 342.411C641.412 344.905 643.26 347.478 645.738 347.36C647.129 347.28 648.349 346.35 649.378 345.4C655.876 339.422 659.574 330.692 661.136 321.824C662.699 312.956 662.337 303.85 661.86 294.844C661.708 291.894 661.517 288.885 660.317 286.213C659.116 283.541 656.639 281.284 653.799 281.284C648.578 281.284 646.253 287.876 644.575 293.023C642.803 298.446 639.811 303.949 634.723 306.147C627.214 309.393 623.536 300.426 616.389 302.465C609.605 304.405 597.866 307.631 592.453 312.382H592.472Z" fill="url(#paint6_linear_201_1429)"/>
<path style="mix-blend-mode:multiply" opacity="0.1" d="M235.029 158.734C233.314 165.702 232.457 173.046 233.962 180.053C235.468 187.061 239.622 193.712 245.873 196.8C250.98 199.334 257.231 199.452 261.519 203.293C265.826 207.172 266.836 213.705 266.55 219.623C266.264 225.542 265.026 231.5 265.979 237.32C266.97 243.397 270.514 249.039 275.622 252.166C280.729 255.314 287.342 255.769 292.678 253.116C300.72 249.118 304.837 239.22 312.86 235.202C319.892 231.678 329.307 234.034 333.69 240.744C339.578 249.751 335.615 261.826 332.299 272.159C327.115 288.391 324.085 306.523 330.412 322.3C332.527 327.565 335.71 333.167 333.995 338.591C331.86 345.4 323.589 347.38 316.71 347.518C300.663 347.855 283.778 343.698 272.134 332.217C256.297 316.599 253.61 291.063 257.403 268.715C258.546 262.004 260.166 255.215 259.289 248.484C258.432 241.873 255.23 235.875 252.067 230.055C249.246 224.829 246.254 219.425 241.452 216.12C236.268 212.557 229.712 211.983 223.976 209.469C215.438 205.708 208.921 197.334 207.205 187.852C206.31 182.864 206.653 177.717 207.244 172.69C208.254 164.099 209.912 155.587 212.256 147.273C214.485 139.276 217.42 131.318 222.432 124.825C227.464 118.333 234.877 113.443 242.9 113.245C246.445 113.166 250.313 114.196 252.41 117.165C256.507 122.985 247.836 129.754 245.111 134.268C240.575 141.79 237.145 150.064 235.029 158.675V158.734Z" fill="url(#paint7_linear_201_1429)"/>
<path style="mix-blend-mode:multiply" opacity="0.1" d="M352.003 77.1992C353.871 77.8722 355.719 78.8026 356.939 80.406C359.893 84.2462 358.102 89.9867 355.453 94.0645C352.804 98.1422 349.259 102.002 348.84 106.892C348.23 113.8 354.404 119.679 360.922 121.203C367.44 122.728 374.186 121.065 380.761 119.837C392.405 117.66 404.278 116.829 416.112 117.343C424.536 117.719 434.198 119.58 438.371 127.181C440.811 131.615 440.754 137.079 442.545 141.83C446.928 153.588 460.707 157.923 472.808 158.972C484.891 160.021 498.059 159.605 507.798 167.108C517.574 174.65 521.805 188.803 532.706 194.464C539.719 198.107 548.714 197.196 554.908 192.208C560.758 187.497 564.646 179.341 571.926 177.936C579.32 176.49 585.724 182.785 592.203 186.784C604.019 194.068 620.446 193.494 630.566 183.854C640.685 174.194 642.057 155.587 632.167 145.67C628.717 142.206 624.296 139.969 619.76 138.425C603.218 132.803 584.046 136.445 570.497 147.788C561.482 155.33 554.412 166.237 543.34 169.74C537.508 171.581 531.029 171.047 525.54 168.276C517.536 164.218 512.181 155.904 504.291 151.608C492.819 145.353 478.945 148.817 465.986 148.817C462.574 148.817 458.954 148.501 456.171 146.442C453.96 144.819 452.531 142.285 451.559 139.672C446.757 126.884 450.892 110.079 441.192 100.755C432.654 92.5601 418.819 95.8658 408.623 101.646C398.427 107.426 388.46 115.423 376.835 115.384C373.519 115.384 369.765 114.334 368.259 111.266C366.277 107.208 369.365 102.556 372.261 99.1518C375.673 95.1334 379.084 91.0952 382.495 87.0769C386.383 82.4844 390.499 77.3378 390.556 71.2409C390.614 65.5796 386.993 60.4131 382.419 57.3449C377.845 54.2767 372.414 52.9306 367.059 51.8419C355.91 49.5655 330.316 45.0523 321.378 55.8801C316.518 61.779 319.644 69.8553 325.914 72.6464C334.108 76.3084 343.618 74.23 352.022 77.219L352.003 77.1992Z" fill="url(#paint8_linear_201_1429)"/>
<path style="mix-blend-mode:multiply" opacity="0.1" d="M472.105 5.08576C437.649 -1.96123 403.441 -1.50593 371.043 5.34311C370.891 6.86732 371.272 8.43112 371.882 9.83656C374.245 15.3593 379.505 19.0412 385.012 21.0009C390.52 22.9606 396.39 23.4753 402.145 24.4254C410.111 25.7517 417.944 27.9489 425.471 30.9577C431.798 33.4915 439.021 38.7767 437.554 45.6653C436.811 49.169 433.933 51.683 431.227 53.9396C422.975 60.7887 414.723 67.6575 406.471 74.5066C403.498 76.9809 400.258 80.0096 400.258 83.9487C400.258 90.1446 407.9 92.9158 413.846 92.5397C429.493 91.5104 443.995 81.0389 459.584 82.6423C463.72 83.0778 468.179 84.7207 470.066 88.5609C472.162 92.8564 470.237 97.9635 468.675 102.497C466.731 108.178 465.378 114.077 464.673 120.055C462.976 134.347 471.819 136.465 482.396 131.14C492.592 125.993 504.121 128.27 512.85 135.297C519.31 140.503 526.99 144.64 535.338 144.739C543.647 144.858 550.412 139.276 555.996 133.456C563.18 125.973 570.403 119.837 580.885 118.669C591.042 117.521 602.343 119.5 611.491 124.212C616.637 126.864 621.058 131.041 626.527 132.902C632.187 134.822 638.419 133.377 643.317 129.932C607.108 67.3606 546.524 20.3081 472.124 5.08576H472.105Z" fill="url(#paint9_linear_201_1429)"/>
<path style="mix-blend-mode:multiply" opacity="0.1" d="M388.766 48.9914C373.139 40.143 353.929 40.3806 336.854 45.5866C329.193 47.9224 321.379 51.248 313.49 50.0009C311.813 49.7436 309.983 49.1299 309.106 47.6255C308.134 45.9825 308.611 43.8447 309.43 42.1225C311.336 38.0844 314.881 35.0557 318.845 33.2148C322.809 31.3937 327.154 30.6613 331.48 30.3643C344.744 29.4142 357.932 32.2448 371.157 33.6701C380.667 34.6994 390.234 35.0161 399.801 34.6004C404.927 34.3827 410.206 33.9868 415.066 35.6892C419.925 37.4113 424.309 41.9048 424.194 47.2296C424.099 52.0596 420.535 55.979 416.991 59.0868C413.351 62.2737 409.482 65.144 405.404 67.6976C402.431 69.5583 398.162 71.6961 399.115 66.015C399.724 62.3133 400.62 60.8881 398.276 57.3448C395.932 53.7619 392.425 51.05 388.805 48.9914H388.766Z" fill="url(#paint10_linear_201_1429)"/>
<path style="mix-blend-mode:screen" opacity="0.5" d="M422.345 535.57C564.718 535.57 680.134 415.687 680.134 267.804C680.134 119.921 564.718 0.0380859 422.345 0.0380859C279.971 0.0380859 164.555 119.921 164.555 267.804C164.555 415.687 279.971 535.57 422.345 535.57Z" fill="url(#paint11_radial_201_1429)"/>
<path opacity="0.1" d="M283.951 41.9053C134.16 -3.26675 20.482 -9.52195 3.23502 33.1361C-20.6249 92.1843 149.272 222.573 382.726 324.379C616.179 426.184 824.782 460.865 848.642 401.816C864.574 362.385 794.119 291.163 676.039 217.862" stroke="url(#paint12_linear_201_1429)" stroke-width="0.5" stroke-miterlimit="10"/>
<path opacity="0.3" d="M279.948 44.2212C149.728 6.47227 52.5928 1.74129 37.7089 38.5994C16.2121 91.7488 174.103 211.29 390.348 305.593C606.592 399.896 799.301 433.251 820.798 380.101C834.367 346.529 776.375 286.452 677.276 222.989" stroke="url(#paint13_linear_201_1429)" stroke-width="0.5" stroke-miterlimit="10"/>
<path opacity="0.6" d="M275.946 46.6361C167.948 16.7854 89.2213 13.4598 77.0627 43.5283C58.4436 89.5713 202.918 196.484 399.743 282.314C596.568 368.145 771.211 400.411 789.811 354.368C800.635 327.566 756.232 280.137 678.401 228.254" stroke="url(#paint14_linear_201_1429)" stroke-width="0.5" stroke-miterlimit="10"/>
<path d="M271.907 49.2091C178.316 23.1985 111.653 19.0416 101.934 43.0529C86.326 81.6529 223.845 178.43 409.083 259.213C594.321 339.996 757.129 374.182 772.718 335.602C781.198 314.619 744.398 276.415 679.279 232.946" stroke="url(#paint15_linear_201_1429)" stroke-width="0.5" stroke-miterlimit="10"/>
<defs>
<radialGradient id="paint0_radial_201_1429" cx="0" cy="0" r="1" gradientUnits="userSpaceOnUse" gradientTransform="translate(576.689 44.342) rotate(11.5493) scale(473.987 490.886)">
<stop stop-color="#FC49EF"/>
<stop offset="0.09" stop-color="#F446E9" stop-opacity="0.96"/>
<stop offset="0.23" stop-color="#DE3FDA" stop-opacity="0.86"/>
<stop offset="0.42" stop-color="#BC34C2" stop-opacity="0.68"/>
<stop offset="0.64" stop-color="#8C25A0" stop-opacity="0.45"/>
<stop offset="0.89" stop-color="#4F1276" stop-opacity="0.15"/>
<stop offset="1" stop-color="#320962" stop-opacity="0"/>
</radialGradient>
<linearGradient id="paint1_linear_201_1429" x1="258.604" y1="127.854" x2="332.623" y2="127.854" gradientUnits="userSpaceOnUse">
<stop stop-color="#FC49EF"/>
<stop offset="0.1" stop-color="#F54EEF"/>
<stop offset="0.24" stop-color="#E25EEF"/>
<stop offset="0.41" stop-color="#C478EF"/>
<stop offset="0.6" stop-color="#999CEF"/>
<stop offset="0.8" stop-color="#63CAEF"/>
<stop offset="1" stop-color="#26FFEF"/>
</linearGradient>
<linearGradient id="paint2_linear_201_1429" x1="289.744" y1="197.493" x2="499.433" y2="197.493" gradientUnits="userSpaceOnUse">
<stop stop-color="#FC49EF"/>
<stop offset="0.1" stop-color="#F54EEF"/>
<stop offset="0.24" stop-color="#E25EEF"/>
<stop offset="0.41" stop-color="#C478EF"/>
<stop offset="0.6" stop-color="#999CEF"/>
<stop offset="0.8" stop-color="#63CAEF"/>
<stop offset="1" stop-color="#26FFEF"/>
</linearGradient>
<linearGradient id="paint3_linear_201_1429" x1="360.313" y1="324.002" x2="638.514" y2="324.002" gradientUnits="userSpaceOnUse">
<stop stop-color="#FC49EF"/>
<stop offset="0.1" stop-color="#F54EEF"/>
<stop offset="0.24" stop-color="#E25EEF"/>
<stop offset="0.41" stop-color="#C478EF"/>
<stop offset="0.6" stop-color="#999CEF"/>
<stop offset="0.8" stop-color="#63CAEF"/>
<stop offset="1" stop-color="#26FFEF"/>
</linearGradient>
<linearGradient id="paint4_linear_201_1429" x1="413.406" y1="174.491" x2="493.943" y2="174.491" gradientUnits="userSpaceOnUse">
<stop stop-color="#FC49EF"/>
<stop offset="0.1" stop-color="#F54EEF"/>
<stop offset="0.24" stop-color="#E25EEF"/>
<stop offset="0.41" stop-color="#C478EF"/>
<stop offset="0.6" stop-color="#999CEF"/>
<stop offset="0.8" stop-color="#63CAEF"/>
<stop offset="1" stop-color="#26FFEF"/>
</linearGradient>
<linearGradient id="paint5_linear_201_1429" x1="553.365" y1="221.068" x2="658.124" y2="221.068" gradientUnits="userSpaceOnUse">
<stop stop-color="#FC49EF"/>
<stop offset="0.1" stop-color="#F54EEF"/>
<stop offset="0.24" stop-color="#E25EEF"/>
<stop offset="0.41" stop-color="#C478EF"/>
<stop offset="0.6" stop-color="#999CEF"/>
<stop offset="0.8" stop-color="#63CAEF"/>
<stop offset="1" stop-color="#26FFEF"/>
</linearGradient>
<linearGradient id="paint6_linear_201_1429" x1="589.156" y1="314.322" x2="662.261" y2="314.322" gradientUnits="userSpaceOnUse">
<stop stop-color="#FC49EF"/>
<stop offset="0.1" stop-color="#F54EEF"/>
<stop offset="0.24" stop-color="#E25EEF"/>
<stop offset="0.41" stop-color="#C478EF"/>
<stop offset="0.6" stop-color="#999CEF"/>
<stop offset="0.8" stop-color="#63CAEF"/>
<stop offset="1" stop-color="#26FFEF"/>
</linearGradient>
<linearGradient id="paint7_linear_201_1429" x1="206.672" y1="230.431" x2="336.682" y2="230.431" gradientUnits="userSpaceOnUse">
<stop stop-color="#FC49EF"/>
<stop offset="0.1" stop-color="#F54EEF"/>
<stop offset="0.24" stop-color="#E25EEF"/>
<stop offset="0.41" stop-color="#C478EF"/>
<stop offset="0.6" stop-color="#999CEF"/>
<stop offset="0.8" stop-color="#63CAEF"/>
<stop offset="1" stop-color="#26FFEF"/>
</linearGradient>
<linearGradient id="paint8_linear_201_1429" x1="318.977" y1="122.807" x2="638.875" y2="122.807" gradientUnits="userSpaceOnUse">
<stop stop-color="#FC49EF"/>
<stop offset="0.1" stop-color="#F54EEF"/>
<stop offset="0.24" stop-color="#E25EEF"/>
<stop offset="0.41" stop-color="#C478EF"/>
<stop offset="0.6" stop-color="#999CEF"/>
<stop offset="0.8" stop-color="#63CAEF"/>
<stop offset="1" stop-color="#26FFEF"/>
</linearGradient>
<linearGradient id="paint9_linear_201_1429" x1="371.005" y1="72.3687" x2="643.317" y2="72.3687" gradientUnits="userSpaceOnUse">
<stop stop-color="#FC49EF"/>
<stop offset="0.1" stop-color="#F54EEF"/>
<stop offset="0.24" stop-color="#E25EEF"/>
<stop offset="0.41" stop-color="#C478EF"/>
<stop offset="0.6" stop-color="#999CEF"/>
<stop offset="0.8" stop-color="#63CAEF"/>
<stop offset="1" stop-color="#26FFEF"/>
</linearGradient>
<linearGradient id="paint10_linear_201_1429" x1="308.573" y1="49.9217" x2="424.175" y2="49.9217" gradientUnits="userSpaceOnUse">
<stop stop-color="#FC49EF"/>
<stop offset="0.1" stop-color="#F54EEF"/>
<stop offset="0.24" stop-color="#E25EEF"/>
<stop offset="0.41" stop-color="#C478EF"/>
<stop offset="0.6" stop-color="#999CEF"/>
<stop offset="0.8" stop-color="#63CAEF"/>
<stop offset="1" stop-color="#26FFEF"/>
</linearGradient>
<radialGradient id="paint11_radial_201_1429" cx="0" cy="0" r="1" gradientUnits="userSpaceOnUse" gradientTransform="translate(499.979 28.2771) rotate(16.7406) scale(258.996 117.65)">
<stop stop-color="white"/>
<stop offset="0.12" stop-color="#FEE3FC" stop-opacity="0.85"/>
<stop offset="0.36" stop-color="#FDADF7" stop-opacity="0.55"/>
<stop offset="0.58" stop-color="#FC82F4" stop-opacity="0.32"/>
<stop offset="0.77" stop-color="#FC63F1" stop-opacity="0.14"/>
<stop offset="0.91" stop-color="#FC50EF" stop-opacity="0.04"/>
<stop offset="1" stop-color="#FC49EF" stop-opacity="0"/>
</radialGradient>
<linearGradient id="paint12_linear_201_1429" x1="-0.923589" y1="41.8977" x2="854.743" y2="387.848" gradientUnits="userSpaceOnUse">
<stop stop-color="#26FFEF"/>
<stop offset="0.34" stop-color="#73BDEF"/>
<stop offset="0.8" stop-color="#D56AEF"/>
<stop offset="1" stop-color="#FC49EF"/>
</linearGradient>
<linearGradient id="paint13_linear_201_1429" x1="33.7947" y1="43.8109" x2="829.564" y2="365.544" gradientUnits="userSpaceOnUse">
<stop stop-color="#26FFEF"/>
<stop offset="0.34" stop-color="#73BDEF"/>
<stop offset="0.8" stop-color="#D56AEF"/>
<stop offset="1" stop-color="#FC49EF"/>
</linearGradient>
<linearGradient id="paint14_linear_201_1429" x1="73.6503" y1="54.1645" x2="792.41" y2="344.763" gradientUnits="userSpaceOnUse">
<stop stop-color="#26FFEF"/>
<stop offset="0.34" stop-color="#73BDEF"/>
<stop offset="0.8" stop-color="#D56AEF"/>
<stop offset="1" stop-color="#FC49EF"/>
</linearGradient>
<linearGradient id="paint15_linear_201_1429" x1="99.3742" y1="52.9463" x2="775.309" y2="326.23" gradientUnits="userSpaceOnUse">
<stop stop-color="#26FFEF"/>
<stop offset="0.34" stop-color="#73BDEF"/>
<stop offset="0.8" stop-color="#D56AEF"/>
<stop offset="1" stop-color="#FC49EF"/>
</linearGradient>
</defs>
</svg>
